<?xml version="1.0" encoding="utf-8"?>
<!-- Generator: Adobe Illustrator 27.1.1, SVG Export Plug-In . SVG Version: 6.00 Build 0)  -->
<svg version="1.1" id="logo" xmlns="http://www.w3.org/2000/svg" xmlns:xlink="http://www.w3.org/1999/xlink" x="0px" y="0px"
	 viewBox="0 0 757.5 245" style="enable-background:new 0 0 757.5 245;" xml:space="preserve">
<style type="text/css">
	.st0{display:none;fill:#947150;}
	.st1{fill:#947150;}
	.st2{font-family:'JosefinSlab-Bold';}
	.st3{font-size:204.5474px;}
	.st4{letter-spacing:-14.77;}
	.st5{font-size:210px;}
	.st6{letter-spacing:-18.18;}
	.st7{display:none;fill:none;}
</style>
<rect x="82.5" y="54" class="st0" width="7" height="163"/>
<path id="_x3C_Path_x3E_6" class="st1" d="M113.99,51c0.38,20.86-13.26,45-28.24,45S57.12,71.86,57.5,51
	C58.01,22.94,83.77,7.17,85.74,6C87.72,7.17,113.48,22.94,113.99,51z"/>
<path id="_x3C_Path_x3E_5" class="st1" d="M145.92,136.24c-12.87,17.58-38.74,29.6-50.43,20.74c-11.68-8.86-7.07-37.01,6.39-54.15
	c18.11-23.04,48.15-20.94,50.43-20.74C153.11,84.23,163.23,112.59,145.92,136.24z"/>
<path id="_x3C_Path_x3E_4" class="st1" d="M67.67,101.32c14.8,15.99,21.41,43.9,10.21,53.9c-11.2,10.01-38.19,0.31-52.42-16.19
	c-19.15-22.19-10.88-51.67-10.21-53.9C17.54,84.72,47.76,79.81,67.67,101.32z"/>
<path id="_x3C_Path_x3E_3" class="st1" d="M66.48,173.94c18.1,17.46,28.66,48.08,17.61,59.17s-41.71,0.66-59.25-17.37
	C1.26,191.51,6.78,159.04,7.24,156.58C9.69,156.11,42.14,150.46,66.48,173.94z"/>
<path id="_x3C_Path_x3E_2" class="st1" d="M148.1,214.42c-16.12,18.54-45.72,30.18-57.36,19.72c-11.64-10.46-3.24-41.13,13.47-59.14
	c22.48-24.23,54.91-20.07,57.36-19.72C162.18,157.68,169.78,189.48,148.1,214.42z"/>
<ellipse class="st1" cx="86" cy="232.5" rx="30.5" ry="7.5"/>
<path id="_x3C_Path_x3E_1" class="st1" d="M114.5,158c-7.06,2.03-17.21,4.14-29.5,4c-12.85-0.14-23.34-2.68-30.5-5
	c5.5-11.81,17.51-19.29,30.5-19C97.87,138.28,109.45,146.13,114.5,158z"/>
<text transform="matrix(0.88 0 0 1 186.7129 189.8633)"><tspan x="0" y="0" class="st1 st2 st3 st4">Bakker</tspan><tspan x="516.48" y="0" class="st1 st2 st5 st6">y</tspan></text>
<rect x="363.5" y="33" class="st1" width="39" height="19"/>
<rect x="446.5" y="33" class="st1" width="39" height="19"/>
<rect x="300.33" y="774.68" style="fill:none;" width="928.34" height="73.53"/>
<g style="display:none;">
</g>
<rect id="_x3C_Slice_x3E_" x="-884.5" y="529" class="st7" width="582" height="37"/>
</svg>
