<?xml version="1.0" encoding="utf-8"?>
<!-- Generator: Adobe Illustrator 27.1.1, SVG Export Plug-In . SVG Version: 6.00 Build 0)  -->
<svg version="1.1" xmlns="http://www.w3.org/2000/svg" xmlns:xlink="http://www.w3.org/1999/xlink" x="0px" y="0px"
	 viewBox="0 0 612 792" style="enable-background:new 0 0 612 792;" xml:space="preserve">
<style type="text/css">
	.st0{display:none;}
	.st1{display:inline;fill:#947150;}
	.st2{fill:#846349;}
</style>
<g id="Layer_1" class="st0">
	<rect x="303" y="109" class="st1" width="7" height="163"/>
	<path class="st1" d="M334.49,106c0.38,20.86-13.26,45-28.24,45c-14.99,0-28.62-24.14-28.24-45c0.51-28.06,26.27-43.83,28.24-45
		C308.22,62.17,333.98,77.94,334.49,106z"/>
	<path class="st1" d="M366.42,191.24c-12.87,17.58-38.74,29.6-50.43,20.74c-11.68-8.86-7.07-37.01,6.39-54.15
		c18.11-23.04,48.15-20.94,50.43-20.74C373.61,139.23,383.73,167.59,366.42,191.24z"/>
	<path class="st1" d="M288.17,156.32c14.8,15.99,21.41,43.9,10.21,53.9c-11.2,10.01-38.19,0.31-52.42-16.19
		c-19.15-22.19-10.88-51.67-10.21-53.9C238.04,139.72,268.26,134.81,288.17,156.32z"/>
	<path class="st1" d="M286.98,228.94c18.1,17.46,28.66,48.08,17.61,59.17c-11.05,11.09-41.71,0.66-59.25-17.37
		c-23.59-24.24-18.07-56.71-17.61-59.17C230.19,211.11,262.64,205.46,286.98,228.94z"/>
	<path class="st1" d="M368.6,269.42c-16.12,18.54-45.72,30.18-57.36,19.72s-3.24-41.13,13.47-59.14
		c22.48-24.23,54.91-20.07,57.36-19.72C382.68,212.68,390.28,244.48,368.6,269.42z"/>
	<ellipse class="st1" cx="306.5" cy="287.5" rx="30.5" ry="7.5"/>
	<path class="st1" d="M335,213c-7.06,2.03-17.21,4.14-29.5,4c-12.85-0.14-23.34-2.68-30.5-5c5.5-11.81,17.51-19.29,30.5-19
		C318.37,193.28,329.95,201.13,335,213z"/>
</g>
<g id="Layer_1_copy">
	<rect x="303" y="109" class="st2" width="7" height="163"/>
	<path class="st2" d="M334.49,106c0.38,20.86-13.26,45-28.24,45c-14.99,0-28.62-24.14-28.24-45c0.51-28.06,26.27-43.83,28.24-45
		C308.22,62.17,333.98,77.94,334.49,106z"/>
	<path class="st2" d="M366.42,191.24c-12.87,17.58-38.74,29.6-50.43,20.74c-11.68-8.86-7.07-37.01,6.39-54.15
		c18.11-23.04,48.15-20.94,50.43-20.74C373.61,139.23,383.73,167.59,366.42,191.24z"/>
	<path class="st2" d="M288.17,156.32c14.8,15.99,21.41,43.9,10.21,53.9c-11.2,10.01-38.19,0.31-52.42-16.19
		c-19.15-22.19-10.88-51.67-10.21-53.9C238.04,139.72,268.26,134.81,288.17,156.32z"/>
	<path class="st2" d="M286.98,228.94c18.1,17.46,28.66,48.08,17.61,59.17c-11.05,11.09-41.71,0.66-59.25-17.37
		c-23.59-24.24-18.07-56.71-17.61-59.17C230.19,211.11,262.64,205.46,286.98,228.94z"/>
	<path class="st2" d="M368.6,269.42c-16.12,18.54-45.72,30.18-57.36,19.72s-3.24-41.13,13.47-59.14
		c22.48-24.23,54.91-20.07,57.36-19.72C382.68,212.68,390.28,244.48,368.6,269.42z"/>
	<ellipse class="st2" cx="306.5" cy="287.5" rx="30.5" ry="7.5"/>
	<path class="st2" d="M335,213c-7.06,2.03-17.21,4.14-29.5,4c-12.85-0.14-23.34-2.68-30.5-5c5.5-11.81,17.51-19.29,30.5-19
		C318.37,193.28,329.95,201.13,335,213z"/>
</g>
<g id="Layer_2" class="st0">
</g>
</svg>
