<?xml version="1.0" encoding="UTF-8"?>
<svg id="logo" xmlns="http://www.w3.org/2000/svg" viewBox="0 0 157 234">
  <defs>
    <style>
      .cls-1 {
        fill: #947150;
      }
    </style>
  </defs>
  <rect class="cls-1" x="76.14" y="48" width="7" height="163"/>
  <path id="_Path_6" data-name="&amp;lt;Path&amp;gt;6" class="cls-1" d="m107.63,45c.38,20.86-13.26,45-28.24,45s-28.62-24.14-28.24-45C51.65,16.94,77.41,1.17,79.39,0c1.98,1.17,27.73,16.94,28.24,45Z"/>
  <path id="_Path_5" data-name="&amp;lt;Path&amp;gt;5" class="cls-1" d="m139.56,130.24c-12.87,17.58-38.74,29.6-50.43,20.74-11.68-8.86-7.07-37.01,6.39-54.15,18.11-23.04,48.15-20.94,50.43-20.74.8,2.14,10.92,30.5-6.39,54.15Z"/>
  <path id="_Path_4" data-name="&amp;lt;Path&amp;gt;4" class="cls-1" d="m61.31,95.32c14.8,15.99,21.41,43.9,10.21,53.9s-38.19.31-52.42-16.19C-.04,110.84,8.23,81.36,8.89,79.13c2.29-.41,32.51-5.32,52.42,16.19Z"/>
  <path id="_Path_3" data-name="&amp;lt;Path&amp;gt;3" class="cls-1" d="m60.13,167.94c18.1,17.46,28.66,48.08,17.61,59.17s-41.71.66-59.25-17.37C-5.09,185.51.42,153.04.88,150.58c2.46-.47,34.91-6.12,59.25,17.37Z"/>
  <path id="_Path_2" data-name="&amp;lt;Path&amp;gt;2" class="cls-1" d="m141.74,208.42c-16.12,18.54-45.72,30.18-57.36,19.72-11.64-10.46-3.24-41.13,13.47-59.14,22.48-24.23,54.91-20.07,57.36-19.72.62,2.41,8.22,34.2-13.47,59.14Z"/>
  <ellipse class="cls-1" cx="79.64" cy="226.5" rx="30.5" ry="7.5"/>
  <path id="_Path_1" data-name="&amp;lt;Path&amp;gt;1" class="cls-1" d="m108.14,152c-7.06,2.03-17.21,4.14-29.5,4-12.85-.14-23.34-2.68-30.5-5,5.5-11.81,17.51-19.29,30.5-19,12.87.28,24.45,8.13,29.5,20Z"/>
</svg>